<svg viewBox="0 0 121 40" xmlns="http://www.w3.org/2000/svg" fill-rule="evenodd" clip-rule="evenodd" stroke-linejoin="round" stroke-miterlimit="2"><clipPath id="a"><path clip-rule="nonzero" d="M0 11.027h51.667v28.844H0z"/></clipPath><g clip-path="url(#a)"><g transform="translate(0 10.899)"><clipPath id="b"><path d="M37.298.129c2 0 3.863.375 5.588 1.124a14.859 14.859 0 0 1 4.566 3.083 14.311 14.311 0 0 1 3.098 4.561c.744 1.735 1.117 3.609 1.117 5.621v14.455h-5.684V14.518a8.518 8.518 0 0 0-.67-3.372 8.77 8.77 0 0 0-1.852-2.763 8.632 8.632 0 0 0-2.779-1.863 8.618 8.618 0 0 0-3.384-.674c-1.193 0-2.31.225-3.353.674a8.702 8.702 0 0 0-4.599 4.626 8.518 8.518 0 0 0-.67 3.372v14.455h-5.684V14.518a8.518 8.518 0 0 0-.671-3.372 8.77 8.77 0 0 0-1.852-2.763 8.617 8.617 0 0 0-2.778-1.863 8.623 8.623 0 0 0-3.385-.674c-1.193 0-2.31.225-3.353.674a8.686 8.686 0 0 0-4.598 4.626 8.518 8.518 0 0 0-.671 3.372v14.455H0V14.518c0-2.012.372-3.886 1.118-5.621a14.534 14.534 0 0 1 3.065-4.561A14.357 14.357 0 0 1 8.75 1.253 13.937 13.937 0 0 1 14.306.129c2.384 0 4.566.525 6.546 1.573a14.475 14.475 0 0 1 4.95 4.273 14.368 14.368 0 0 1 4.981-4.273C32.784.654 34.956.129 37.298.129z"/></clipPath><g clip-path="url(#b)"><path fill="#00B9FF" d="M0 .101h52v29H0z"/></g></g></g><path d="M61.578 19.814c-1.718 1.678-2.576 3.69-2.576 6.037 0 1.3.299 2.537.901 3.71l2.351-2.295 3.35-3.27a458.153 458.153 0 0 1 3.414-3.301 368.674 368.674 0 0 0 2.544-2.453c-1.632-.796-3.36-1.07-5.185-.817-1.826.25-3.425 1.048-4.799 2.389zm14.364 10.125L80 33.899l-1.997 1.95a14.412 14.412 0 0 1-4.702 3.082A14.6 14.6 0 0 1 67.762 40c-1.933 0-3.779-.355-5.54-1.07a14.391 14.391 0 0 1-4.702-3.08c-1.417-1.384-2.47-2.945-3.156-4.685a14.353 14.353 0 0 1-1.031-5.314c0-1.802.344-3.563 1.031-5.282.686-1.72 1.739-3.27 3.156-4.654 1.417-1.383 3.016-2.421 4.799-3.112a14.916 14.916 0 0 1 5.443-1.038c1.845 0 3.66.346 5.443 1.038 1.781.69 3.381 1.729 4.798 3.112L80 17.865 63.961 33.523c1.632.797 3.36 1.059 5.186.786 1.824-.272 3.423-1.08 4.798-2.421l1.997-1.95z" fill="#00B7FC"/><path fill="#00B9FF" d="M81.569 0h5.49v40h-5.49z"/><path d="M112.05 34.404V25.85c0-1.173-.22-2.273-.66-3.301a8.544 8.544 0 0 0-4.528-4.528 8.295 8.295 0 0 0-3.301-.66c-1.174 0-2.286.22-3.333.66a8.438 8.438 0 0 0-2.735 1.824 8.527 8.527 0 0 0-1.824 2.704 8.299 8.299 0 0 0-.66 3.3c0 1.175.22 2.287.66 3.334a8.427 8.427 0 0 0 1.824 2.736 8.436 8.436 0 0 0 2.735 1.823 8.52 8.52 0 0 0 3.333.66h8.489zm-8.489-22.64c1.97 0 3.804.369 5.502 1.102a14.255 14.255 0 0 1 4.465 3.018 14.257 14.257 0 0 1 3.019 4.465c.733 1.698 1.1 3.532 1.1 5.502V40h-14.086a13.78 13.78 0 0 1-5.471-1.1 14.226 14.226 0 0 1-4.528-3.05 14.215 14.215 0 0 1-3.05-4.528 13.78 13.78 0 0 1-1.1-5.471c0-1.97.366-3.804 1.1-5.502a13.966 13.966 0 0 1 3.05-4.465 14.525 14.525 0 0 1 4.528-3.018 13.797 13.797 0 0 1 5.471-1.101z" fill="#00B8FF"/><path d="M113.441 13.1S109.13 1.967 98.947 4.223c-10.181 2.257-9.071 14.1-9.071 14.1l.271 1.271s-.885.843-.713 1.297c0 0 .23.408.948.248l23.176-5.138s4.745-.821 4.969-.958c0 0 2.039-.396 2.254-1.212 0 0 .4-1.153-7.34-.731z" fill="#FFC572"/><path d="M109.02 8.79s-5.282-3.596-9.566-2.473c0 0-4.07.617-7.69 7.016 0 0 1.59-5.892 7.637-7.648 0 0 4.601-1.36 9.618 3.106z" fill="#fff"/></svg>